<svg width="21" height="20" viewBox="0 0 21 20" fill="none" xmlns="http://www.w3.org/2000/svg">
<path fill-rule="evenodd" clip-rule="evenodd" d="M19.9291 18.4694L15.235 13.7762C18.0614 10.383 17.7189 5.36693 14.4576 2.38935C11.1963 -0.588237 6.16978 -0.474001 3.04711 2.64867C-0.0755639 5.77134 -0.189799 10.7978 2.78779 14.0591C5.76537 17.3204 10.7815 17.6629 14.1747 14.8366L18.8678 19.5306C19.1609 19.8237 19.636 19.8237 19.9291 19.5306C20.2221 19.2376 20.2221 18.7624 19.9291 18.4694ZM2.14844 8.5C2.14844 4.77208 5.17052 1.75 8.89844 1.75C12.6264 1.75 15.6484 4.77208 15.6484 8.5C15.6484 12.2279 12.6264 15.25 8.89844 15.25C5.17223 15.2459 2.15257 12.2262 2.14844 8.5Z" fill="#964F66"/>
</svg>